{"asset":{"generator":"3D Builder","version":"2.0"},"scene":0,"scenes":[{"nodes":[0]}],"nodes":[{"mesh":0,"matrix":[1,0,0,0,0,0.95279997587203979,-0.30358400940895081,0,0,0.3035837709903717,0.95280003547668457,0,0,0.020164409652352333,0.0011691275285556912,1]}],"meshes":[{"primitives":[{"attributes":{"POSITION":0,"TEXCOORD_0":4},"mode":4,"indices":8,"material":0},{"attributes":{"POSITION":1,"TEXCOORD_0":5},"mode":4,"indices":9,"material":1},{"attributes":{"POSITION":2,"TEXCOORD_0":6},"mode":4,"indices":10,"material":2},{"attributes":{"POSITION":3,"COLOR_0":7},"mode":4,"indices":11}]}],"materials":[{"pbrMetallicRoughness":{"baseColorFactor":[1,1,1,1],"metallicFactor":0,"roughnessFactor":1,"baseColorTexture":{"index":0,"texCoord":0}},"alphaMode":"OPAQUE"},{"pbrMetallicRoughness":{"baseColorFactor":[1,1,1,1],"metallicFactor":0,"roughnessFactor":1,"baseColorTexture":{"index":1,"texCoord":0}},"alphaMode":"OPAQUE"},{"pbrMetallicRoughness":{"baseColorFactor":[1,1,1,1],"metallicFactor":0,"roughnessFactor":1,"baseColorTexture":{"index":2,"texCoord":0}},"alphaMode":"OPAQUE"}],"textures":[{"source":0,"sampler":0},{"source":1,"sampler":0},{"source":2,"sampler":0}],"images":[{"uri":"adc287dd.png"},{"uri":"6037449e.png"},{"uri":"1544d478.png"}],"samplers":[{"magFilter":9729,"wrapS":10497,"wrapT":10497}],"accessors":[{"bufferView":0,"byteOffset":0,"count":384,"componentType":5126,"type":"VEC3","min":[-0.016662400215864182,-0.0041046398691833019,-0.0083921598270535469],"max":[0.016662400215864182,0.013525500893592834,0.014932659454643726]},{"bufferView":0,"byteOffset":4608,"count":290,"componentType":5126,"type":"VEC3","min":[-0.015440660528838634,-0.020452078431844711,-0.010690859518945217],"max":[0.015440660528838634,0.00053593999473378062,0.010612119920551777]},{"bufferView":0,"byteOffset":8088,"count":129,"componentType":5126,"type":"VEC3","min":[-0.018341340124607086,-0.0089839799329638481,-0.017218660563230515],"max":[0.018341340124607086,0.015252699144184589,0.01856485940515995]},{"bufferView":0,"byteOffset":9636,"count":35,"componentType":5126,"type":"VEC3","min":[-0.016824960708618164,-0.0089839799329638481,-0.015897858887910843],"max":[0.016824960708618164,0.001803399994969368,0.013218159787356853]},{"bufferView":1,"byteOffset":0,"count":384,"componentType":5126,"type":"VEC2"},{"bufferView":1,"byteOffset":3072,"count":290,"componentType":5126,"type":"VEC2"},{"bufferView":1,"byteOffset":5392,"count":129,"componentType":5126,"type":"VEC2"},{"bufferView":2,"byteOffset":0,"count":35,"componentType":5121,"type":"VEC4","normalized":true},{"bufferView":3,"byteOffset":0,"count":792,"componentType":5125,"type":"SCALAR"},{"bufferView":3,"byteOffset":3168,"count":1272,"componentType":5125,"type":"SCALAR"},{"bufferView":3,"byteOffset":8256,"count":708,"componentType":5125,"type":"SCALAR"},{"bufferView":3,"byteOffset":11088,"count":102,"componentType":5125,"type":"SCALAR"}],"bufferViews":[{"buffer":0,"byteOffset":0,"byteLength":10056,"byteStride":12,"target":34962},{"buffer":0,"byteOffset":10056,"byteLength":6424,"byteStride":8,"target":34962},{"buffer":0,"byteOffset":16480,"byteLength":140,"byteStride":4,"target":34962},{"buffer":0,"byteOffset":16620,"byteLength":11496,"target":34963}],"buffers":[{"byteLength":28116,"uri":"scene.bin"}]}