{"asset":{"generator":"3D Builder","version":"2.0"},"scene":0,"scenes":[{"nodes":[0]}],"nodes":[{"children":[1,2,3,4,5,6,7,8]},{"mesh":0,"matrix":[1,0,0,0,0,0.99999725818634033,-4.7683587922620063E-7,0,0,9.6112341907428345E-7,0.999997079372406,0,0,0.00025519149494357407,-0.012695828452706337,1]},{"mesh":1,"matrix":[1,0,0,0,0,0.99999725818634033,-4.7683587922620063E-7,0,0,9.6112341907428345E-7,0.999997079372406,0,0,0.00025519149494357407,-0.012695828452706337,1]},{"mesh":2,"matrix":[1,0,0,0,0,0.99999725818634033,-4.7683587922620063E-7,0,0,9.6112341907428345E-7,0.999997079372406,0,0,0.00025519149494357407,-0.012695828452706337,1]},{"mesh":3,"matrix":[1,0,0,0,0,0.99999725818634033,-4.7683587922620063E-7,0,0,9.6112341907428345E-7,0.999997079372406,0,0,0.00025519149494357407,-0.012695828452706337,1]},{"mesh":4,"matrix":[1,0,0,0,0,0.99999725818634033,-4.7683587922620063E-7,0,0,9.6112341907428345E-7,0.999997079372406,0,0,0.00025519149494357407,-0.012695828452706337,1]},{"mesh":5,"matrix":[1,0,0,0,0,0.99999725818634033,-4.7683587922620063E-7,0,0,9.6112341907428345E-7,0.999997079372406,0,0,0.00025519149494357407,-0.012695828452706337,1]},{"mesh":6,"matrix":[1,0,0,0,0,0.99999725818634033,-4.7683587922620063E-7,0,0,9.6112341907428345E-7,0.999997079372406,0,0,0.00025519149494357407,-0.012695828452706337,1]},{"mesh":7,"matrix":[1,0,0,0,0,0.99999725818634033,-4.7683587922620063E-7,0,0,9.6112341907428345E-7,0.999997079372406,0,0,0.00025519149494357407,-0.012695828452706337,1]}],"meshes":[{"primitives":[{"attributes":{"POSITION":0,"TEXCOORD_0":1},"mode":4,"indices":2,"material":0}]},{"primitives":[{"attributes":{"POSITION":3,"TEXCOORD_0":4},"mode":4,"indices":5,"material":1}]},{"primitives":[{"attributes":{"POSITION":6,"TEXCOORD_0":7},"mode":4,"indices":8,"material":2}]},{"primitives":[{"attributes":{"POSITION":9,"TEXCOORD_0":10},"mode":4,"indices":11,"material":3}]},{"primitives":[{"attributes":{"POSITION":12,"TEXCOORD_0":13},"mode":4,"indices":14,"material":4}]},{"primitives":[{"attributes":{"POSITION":15,"TEXCOORD_0":16},"mode":4,"indices":17,"material":5}]},{"primitives":[{"attributes":{"POSITION":18,"TEXCOORD_0":19},"mode":4,"indices":20,"material":6}]},{"primitives":[{"attributes":{"POSITION":21,"TEXCOORD_0":22},"mode":4,"indices":23,"material":7}]}],"materials":[{"pbrMetallicRoughness":{"baseColorFactor":[1,1,1,1],"metallicFactor":0,"roughnessFactor":1,"baseColorTexture":{"index":0,"texCoord":0}},"alphaMode":"OPAQUE"},{"pbrMetallicRoughness":{"baseColorFactor":[1,1,1,1],"metallicFactor":0,"roughnessFactor":1,"baseColorTexture":{"index":1,"texCoord":0}},"alphaMode":"OPAQUE"},{"pbrMetallicRoughness":{"baseColorFactor":[1,1,1,1],"metallicFactor":0,"roughnessFactor":1,"baseColorTexture":{"index":2,"texCoord":0}},"alphaMode":"OPAQUE"},{"pbrMetallicRoughness":{"baseColorFactor":[1,1,1,1],"metallicFactor":0,"roughnessFactor":1,"baseColorTexture":{"index":3,"texCoord":0}},"alphaMode":"OPAQUE"},{"pbrMetallicRoughness":{"baseColorFactor":[1,1,1,1],"metallicFactor":0,"roughnessFactor":1,"baseColorTexture":{"index":4,"texCoord":0}},"alphaMode":"OPAQUE"},{"pbrMetallicRoughness":{"baseColorFactor":[1,1,1,1],"metallicFactor":0,"roughnessFactor":1,"baseColorTexture":{"index":5,"texCoord":0}},"alphaMode":"OPAQUE"},{"pbrMetallicRoughness":{"baseColorFactor":[1,1,1,1],"metallicFactor":0,"roughnessFactor":1,"baseColorTexture":{"index":6,"texCoord":0}},"alphaMode":"OPAQUE"},{"pbrMetallicRoughness":{"baseColorFactor":[1,1,1,1],"metallicFactor":0,"roughnessFactor":1,"baseColorTexture":{"index":7,"texCoord":0}},"alphaMode":"OPAQUE"}],"textures":[{"source":0,"sampler":0},{"source":1,"sampler":0},{"source":2,"sampler":0},{"source":3,"sampler":0},{"source":4,"sampler":0},{"source":5,"sampler":0},{"source":6,"sampler":0},{"source":7,"sampler":0}],"images":[{"uri":"kanmuri_1.png"},{"uri":"ltelesa_5.png"},{"uri":"ltelesa_3.png"},{"uri":"ltelesa_4.png"},{"uri":"ltelesa_1.png"},{"uri":"ltelesa_2.png"},{"uri":"ltelesa_0.png"},{"uri":"kanmuri_2.png"}],"samplers":[{"magFilter":9729,"wrapS":10497,"wrapT":10497}],"accessors":[{"bufferView":0,"byteOffset":0,"count":58,"componentType":5126,"type":"VEC3","min":[-0.0047896774485707283,0.02105238288640976,-0.0042539923451840878],"max":[0.0047896774485707283,0.023213796317577362,0.0042539923451840878]},{"bufferView":1,"byteOffset":0,"count":58,"componentType":5126,"type":"VEC2"},{"bufferView":2,"byteOffset":0,"count":216,"componentType":5125,"type":"SCALAR"},{"bufferView":3,"byteOffset":0,"count":36,"componentType":5126,"type":"VEC3","min":[-0.0029513782355934381,0.0086207343265414238,0.010038080625236034],"max":[0.0029513782355934381,0.010927054099738598,0.011232921853661537]},{"bufferView":4,"byteOffset":0,"count":36,"componentType":5126,"type":"VEC2"},{"bufferView":5,"byteOffset":0,"count":168,"componentType":5125,"type":"SCALAR"},{"bufferView":6,"byteOffset":0,"count":76,"componentType":5126,"type":"VEC3","min":[-0.0062669673934578896,0.010044176131486893,0.006573900580406189],"max":[0.0062669673934578896,0.01979457400739193,0.012314960360527039]},{"bufferView":7,"byteOffset":0,"count":76,"componentType":5126,"type":"VEC2"},{"bufferView":8,"byteOffset":0,"count":354,"componentType":5125,"type":"SCALAR"},{"bufferView":9,"byteOffset":0,"count":66,"componentType":5126,"type":"VEC3","min":[-0.0019139153882861137,0.0040344852022826672,0.0051591717638075352],"max":[0.0019139153882861137,0.0056446418166160583,0.012951027601957321]},{"bufferView":10,"byteOffset":0,"count":66,"componentType":5126,"type":"VEC2"},{"bufferView":11,"byteOffset":0,"count":384,"componentType":5125,"type":"SCALAR"},{"bufferView":12,"byteOffset":0,"count":18,"componentType":5126,"type":"VEC3","min":[-0.0022280116099864244,0.013231266289949417,0.010745824314653873],"max":[0.0022280116099864244,0.014679675921797752,0.011317350901663303]},{"bufferView":13,"byteOffset":0,"count":18,"componentType":5126,"type":"VEC2"},{"bufferView":14,"byteOffset":0,"count":48,"componentType":5125,"type":"SCALAR"},{"bufferView":15,"byteOffset":0,"count":26,"componentType":5126,"type":"VEC3","min":[-0.0036122356541454792,0.0030263338703662157,0.0043423585593700409],"max":[0.0036122356541454792,0.011410645209252834,0.011848008260130882]},{"bufferView":16,"byteOffset":0,"count":26,"componentType":5126,"type":"VEC2"},{"bufferView":17,"byteOffset":0,"count":108,"componentType":5125,"type":"SCALAR"},{"bufferView":18,"byteOffset":0,"count":375,"componentType":5126,"type":"VEC3","min":[-0.013588668778538704,3.4417000279063359E-5,-0.014187322929501534],"max":[0.013588668778538704,0.021864168345928192,0.011481409892439842]},{"bufferView":19,"byteOffset":0,"count":375,"componentType":5126,"type":"VEC2"},{"bufferView":20,"byteOffset":0,"count":2166,"componentType":5125,"type":"SCALAR"},{"bufferView":21,"byteOffset":0,"count":74,"componentType":5126,"type":"VEC3","min":[-0.0053526689298450947,0.021635845303535461,-0.0046280068345367908],"max":[0.0053526689298450947,0.026593547314405441,0.0046280068345367908]},{"bufferView":22,"byteOffset":0,"count":74,"componentType":5126,"type":"VEC2"},{"bufferView":23,"byteOffset":0,"count":432,"componentType":5125,"type":"SCALAR"}],"bufferViews":[{"buffer":0,"byteOffset":0,"byteLength":696,"byteStride":12,"target":34962},{"buffer":0,"byteOffset":696,"byteLength":464,"byteStride":8,"target":34962},{"buffer":0,"byteOffset":1160,"byteLength":864,"target":34963},{"buffer":0,"byteOffset":2024,"byteLength":432,"byteStride":12,"target":34962},{"buffer":0,"byteOffset":2456,"byteLength":288,"byteStride":8,"target":34962},{"buffer":0,"byteOffset":2744,"byteLength":672,"target":34963},{"buffer":0,"byteOffset":3416,"byteLength":912,"byteStride":12,"target":34962},{"buffer":0,"byteOffset":4328,"byteLength":608,"byteStride":8,"target":34962},{"buffer":0,"byteOffset":4936,"byteLength":1416,"target":34963},{"buffer":0,"byteOffset":6352,"byteLength":792,"byteStride":12,"target":34962},{"buffer":0,"byteOffset":7144,"byteLength":528,"byteStride":8,"target":34962},{"buffer":0,"byteOffset":7672,"byteLength":1536,"target":34963},{"buffer":0,"byteOffset":9208,"byteLength":216,"byteStride":12,"target":34962},{"buffer":0,"byteOffset":9424,"byteLength":144,"byteStride":8,"target":34962},{"buffer":0,"byteOffset":9568,"byteLength":192,"target":34963},{"buffer":0,"byteOffset":9760,"byteLength":312,"byteStride":12,"target":34962},{"buffer":0,"byteOffset":10072,"byteLength":208,"byteStride":8,"target":34962},{"buffer":0,"byteOffset":10280,"byteLength":432,"target":34963},{"buffer":0,"byteOffset":10712,"byteLength":4500,"byteStride":12,"target":34962},{"buffer":0,"byteOffset":15212,"byteLength":3000,"byteStride":8,"target":34962},{"buffer":0,"byteOffset":18212,"byteLength":8664,"target":34963},{"buffer":0,"byteOffset":26876,"byteLength":888,"byteStride":12,"target":34962},{"buffer":0,"byteOffset":27764,"byteLength":592,"byteStride":8,"target":34962},{"buffer":0,"byteOffset":28356,"byteLength":1728,"target":34963}],"buffers":[{"byteLength":30084,"uri":"scene.bin"}]}