{"asset":{"generator":"3D Builder","version":"2.0"},"scene":0,"scenes":[{"nodes":[0]}],"nodes":[{"mesh":0,"matrix":[1,0,0,0,0,0.99999922513961792,3.5762761285695888E-7,0,0,-8.118147434288403E-7,0.99999958276748657,0,0.00034779249108396471,0.021011432632803917,-0.028440995141863823,1]}],"meshes":[{"primitives":[{"attributes":{"POSITION":0,"TEXCOORD_0":1},"mode":4,"indices":2,"material":0}]}],"materials":[{"pbrMetallicRoughness":{"baseColorFactor":[1,1,1,1],"metallicFactor":0,"roughnessFactor":1,"baseColorTexture":{"index":0,"texCoord":0}},"alphaMode":"OPAQUE"}],"textures":[{"source":0,"sampler":0}],"images":[{"uri":"Txo_dokuo.png"}],"samplers":[{"magFilter":9729,"wrapS":10497,"wrapT":10497}],"accessors":[{"bufferView":0,"byteOffset":0,"count":167,"componentType":5126,"type":"VEC3","min":[-0.025475790724158287,-0.01823442243039608,3.7252902984619141E-9],"max":[0.024780206382274628,0.033093560487031937,0.056881986558437347]},{"bufferView":1,"byteOffset":0,"count":167,"componentType":5126,"type":"VEC2"},{"bufferView":2,"byteOffset":0,"count":546,"componentType":5125,"type":"SCALAR"}],"bufferViews":[{"buffer":0,"byteOffset":0,"byteLength":2004,"byteStride":12,"target":34962},{"buffer":0,"byteOffset":2004,"byteLength":1336,"byteStride":8,"target":34962},{"buffer":0,"byteOffset":3340,"byteLength":2184,"target":34963}],"buffers":[{"byteLength":5524,"uri":"scene.bin"}]}