{"asset":{"generator":"3D Builder","version":"2.0"},"scene":0,"scenes":[{"nodes":[0,1,2,3]}],"nodes":[{"mesh":0,"matrix":[1,0,0,0,0,-1.1920928955078125E-7,-0.99999988079071045,0,0,0.99999988079071045,-1.1920928955078125E-7,0,3.1944512102199951E-7,-0.011575445532798767,-0.0017036930657923222,1]},{"mesh":1,"matrix":[1,0,0,0,0,-1.1920928955078125E-7,-0.99999988079071045,0,0,0.99999988079071045,-1.1920928955078125E-7,0,3.1944512102199951E-7,-0.011575445532798767,-0.0017036930657923222,1]},{"mesh":2,"matrix":[1,0,0,0,0,-1.1920928955078125E-7,-0.99999988079071045,0,0,0.99999988079071045,-1.1920928955078125E-7,0,3.1944512102199951E-7,-0.011575445532798767,-0.0017036930657923222,1]},{"mesh":3,"matrix":[1,0,0,0,0,-1.1920928955078125E-7,-0.99999988079071045,0,0,0.99999988079071045,-1.1920928955078125E-7,0,3.1944512102199951E-7,-0.011575445532798767,-0.0017036930657923222,1]}],"meshes":[{"primitives":[{"attributes":{"POSITION":0,"TEXCOORD_0":1},"mode":4,"indices":2,"material":0}]},{"primitives":[{"attributes":{"POSITION":3,"TEXCOORD_0":4},"mode":4,"indices":5,"material":1}]},{"primitives":[{"attributes":{"POSITION":6,"TEXCOORD_0":7},"mode":4,"indices":8,"material":1}]},{"primitives":[{"attributes":{"POSITION":9,"TEXCOORD_0":10},"mode":4,"indices":11,"material":1}]}],"materials":[{"pbrMetallicRoughness":{"baseColorFactor":[1,1,1,1],"metallicFactor":0,"roughnessFactor":1,"baseColorTexture":{"index":0,"texCoord":0}},"alphaMode":"OPAQUE"},{"pbrMetallicRoughness":{"baseColorFactor":[1,1,1,1],"metallicFactor":0,"roughnessFactor":1,"baseColorTexture":{"index":1,"texCoord":0}},"alphaMode":"OPAQUE"}],"textures":[{"source":0,"sampler":0},{"source":1,"sampler":0}],"images":[{"uri":"Texture_0_CMP.png"},{"uri":"Texture_1_CMP.png"}],"samplers":[{"magFilter":9729,"wrapS":10497,"wrapT":10497}],"accessors":[{"bufferView":0,"byteOffset":0,"count":165,"componentType":5126,"type":"VEC3","min":[-0.0046756402589380741,-0.0086046643555164337,0.01259472593665123],"max":[0.0046743587590754032,-0.0054525099694728851,0.017387272790074348]},{"bufferView":1,"byteOffset":0,"count":165,"componentType":5126,"type":"VEC2"},{"bufferView":2,"byteOffset":0,"count":474,"componentType":5125,"type":"SCALAR"},{"bufferView":3,"byteOffset":0,"count":193,"componentType":5126,"type":"VEC3","min":[0.003680679714307189,-0.014481261372566223,0.005620243027806282],"max":[0.010904680006206036,-0.005510618444532156,0.010855158790946007]},{"bufferView":4,"byteOffset":0,"count":193,"componentType":5126,"type":"VEC2"},{"bufferView":5,"byteOffset":0,"count":1146,"componentType":5125,"type":"SCALAR"},{"bufferView":6,"byteOffset":0,"count":974,"componentType":5126,"type":"VEC3","min":[-0.0098693184554576874,-0.0085372626781463623,0.0035054897889494896],"max":[0.0098686786368489265,0.01107387151569128,0.021965811029076576]},{"bufferView":7,"byteOffset":0,"count":974,"componentType":5126,"type":"VEC2"},{"bufferView":8,"byteOffset":0,"count":4578,"componentType":5125,"type":"SCALAR"},{"bufferView":9,"byteOffset":0,"count":193,"componentType":5126,"type":"VEC3","min":[-0.010905318893492222,-0.014481261372566223,0.005620243027806282],"max":[-0.00368331978097558,-0.005510618444532156,0.010855158790946007]},{"bufferView":10,"byteOffset":0,"count":193,"componentType":5126,"type":"VEC2"},{"bufferView":11,"byteOffset":0,"count":1146,"componentType":5125,"type":"SCALAR"}],"bufferViews":[{"buffer":0,"byteOffset":0,"byteLength":1980,"byteStride":12,"target":34962},{"buffer":0,"byteOffset":1980,"byteLength":1320,"byteStride":8,"target":34962},{"buffer":0,"byteOffset":3300,"byteLength":1896,"target":34963},{"buffer":0,"byteOffset":5196,"byteLength":2316,"byteStride":12,"target":34962},{"buffer":0,"byteOffset":7512,"byteLength":1544,"byteStride":8,"target":34962},{"buffer":0,"byteOffset":9056,"byteLength":4584,"target":34963},{"buffer":0,"byteOffset":13640,"byteLength":11688,"byteStride":12,"target":34962},{"buffer":0,"byteOffset":25328,"byteLength":7792,"byteStride":8,"target":34962},{"buffer":0,"byteOffset":33120,"byteLength":18312,"target":34963},{"buffer":0,"byteOffset":51432,"byteLength":2316,"byteStride":12,"target":34962},{"buffer":0,"byteOffset":53748,"byteLength":1544,"byteStride":8,"target":34962},{"buffer":0,"byteOffset":55292,"byteLength":4584,"target":34963}],"buffers":[{"byteLength":59876,"uri":"scene.bin"}]}