{"asset":{"generator":"3D Builder","version":"2.0"},"scene":0,"scenes":[{"nodes":[0,1,2,3,4,5,6,7,8,9,10]}],"nodes":[{"mesh":0,"matrix":[1,0,0,0,0,0.99999970197677612,-7.1054273576010019E-15,0,0,-5.813596430925827E-7,0.99999970197677612,0,1.0297942026227247E-5,-0.010200353339314461,-0.0047994884662330151,1]},{"mesh":1,"matrix":[1,0,0,0,0,0.99999970197677612,-7.1054273576010019E-15,0,0,-5.813596430925827E-7,0.99999970197677612,0,1.0297942026227247E-5,-0.010200353339314461,-0.0047994884662330151,1]},{"mesh":2,"matrix":[1,0,0,0,0,0.99999970197677612,-7.1054273576010019E-15,0,0,-5.813596430925827E-7,0.99999970197677612,0,1.0297942026227247E-5,-0.010200353339314461,-0.0047994884662330151,1]},{"mesh":3,"matrix":[1,0,0,0,0,0.99999970197677612,-7.1054273576010019E-15,0,0,-5.813596430925827E-7,0.99999970197677612,0,1.0297942026227247E-5,-0.010200353339314461,-0.0047994884662330151,1]},{"mesh":4,"matrix":[1,0,0,0,0,0.99999970197677612,-7.1054273576010019E-15,0,0,-5.813596430925827E-7,0.99999970197677612,0,1.0297942026227247E-5,-0.010200353339314461,-0.0047994884662330151,1]},{"mesh":5,"matrix":[1,0,0,0,0,0.99999970197677612,-7.1054273576010019E-15,0,0,-5.813596430925827E-7,0.99999970197677612,0,1.0297942026227247E-5,-0.010200353339314461,-0.0047994884662330151,1]},{"mesh":6,"matrix":[1,0,0,0,0,0.99999970197677612,-7.1054273576010019E-15,0,0,-5.813596430925827E-7,0.99999970197677612,0,1.0297942026227247E-5,-0.010200353339314461,-0.0047994884662330151,1]},{"mesh":7,"matrix":[1,0,0,0,0,0.99999970197677612,-7.1054273576010019E-15,0,0,-5.813596430925827E-7,0.99999970197677612,0,1.0297942026227247E-5,-0.010200353339314461,-0.0047994884662330151,1]},{"mesh":8,"matrix":[1,0,0,0,0,0.99999970197677612,-7.1054273576010019E-15,0,0,-5.813596430925827E-7,0.99999970197677612,0,1.0297942026227247E-5,-0.010200353339314461,-0.0047994884662330151,1]},{"mesh":9,"matrix":[1,0,0,0,0,0.99999970197677612,-7.1054273576010019E-15,0,0,-5.813596430925827E-7,0.99999970197677612,0,1.0297942026227247E-5,-0.010200353339314461,-0.0047994884662330151,1]},{"mesh":10,"matrix":[1,0,0,0,0,0.99999970197677612,-7.1054273576010019E-15,0,0,-5.813596430925827E-7,0.99999970197677612,0,1.0297942026227247E-5,-0.010200353339314461,-0.0047994884662330151,1]}],"meshes":[{"primitives":[{"attributes":{"POSITION":0,"TEXCOORD_0":1},"mode":4,"indices":2,"material":0}]},{"primitives":[{"attributes":{"POSITION":3,"TEXCOORD_0":4},"mode":4,"indices":5,"material":1}]},{"primitives":[{"attributes":{"POSITION":6,"TEXCOORD_0":7},"mode":4,"indices":8,"material":0}]},{"primitives":[{"attributes":{"POSITION":9,"TEXCOORD_0":10},"mode":4,"indices":11,"material":1}]},{"primitives":[{"attributes":{"POSITION":12,"TEXCOORD_0":13},"mode":4,"indices":14,"material":2}]},{"primitives":[{"attributes":{"POSITION":15,"TEXCOORD_0":16},"mode":4,"indices":17,"material":3}]},{"primitives":[{"attributes":{"POSITION":18,"TEXCOORD_0":19},"mode":4,"indices":20,"material":3}]},{"primitives":[{"attributes":{"POSITION":21,"TEXCOORD_0":22},"mode":4,"indices":23,"material":3}]},{"primitives":[{"attributes":{"POSITION":24,"TEXCOORD_0":25},"mode":4,"indices":26,"material":3}]},{"primitives":[{"attributes":{"POSITION":27,"TEXCOORD_0":28},"mode":4,"indices":29,"material":2}]},{"primitives":[{"attributes":{"POSITION":30,"TEXCOORD_0":31},"mode":4,"indices":32,"material":4}]}],"materials":[{"pbrMetallicRoughness":{"baseColorFactor":[1,1,1,1],"metallicFactor":0,"roughnessFactor":1,"baseColorTexture":{"index":0,"texCoord":0}},"alphaMode":"OPAQUE"},{"pbrMetallicRoughness":{"baseColorFactor":[1,1,1,1],"metallicFactor":0,"roughnessFactor":1,"baseColorTexture":{"index":1,"texCoord":0}},"alphaMode":"OPAQUE"},{"pbrMetallicRoughness":{"baseColorFactor":[1,1,1,1],"metallicFactor":0,"roughnessFactor":1,"baseColorTexture":{"index":2,"texCoord":0}},"alphaMode":"OPAQUE"},{"pbrMetallicRoughness":{"baseColorFactor":[1,1,1,1],"metallicFactor":0,"roughnessFactor":1,"baseColorTexture":{"index":3,"texCoord":0}},"alphaMode":"OPAQUE"},{"pbrMetallicRoughness":{"baseColorFactor":[1,1,1,1],"metallicFactor":0,"roughnessFactor":1,"baseColorTexture":{"index":4,"texCoord":0}},"alphaMode":"OPAQUE"}],"textures":[{"source":0,"sampler":0},{"source":1,"sampler":0},{"source":2,"sampler":0},{"source":3,"sampler":0},{"source":4,"sampler":0}],"images":[{"uri":"texture_2.png"},{"uri":"texture_0.png"},{"uri":"texture_3.png"},{"uri":"texture_1.png"},{"uri":"texture_4.png"}],"samplers":[{"magFilter":9729,"wrapS":10497,"wrapT":10497}],"accessors":[{"bufferView":0,"byteOffset":0,"count":18,"componentType":5126,"type":"VEC3","min":[-0.0097482409328222275,-0.007887890562415123,0.0012650468852370977],"max":[-0.0015441213035956025,0.0012598548782989383,0.0031445070635527372]},{"bufferView":1,"byteOffset":0,"count":18,"componentType":5126,"type":"VEC2"},{"bufferView":2,"byteOffset":0,"count":30,"componentType":5125,"type":"SCALAR"},{"bufferView":3,"byteOffset":0,"count":10,"componentType":5126,"type":"VEC3","min":[0.00686641875654459,-0.0032990274485200644,0.0014882874675095081],"max":[0.016556283459067345,0.0051580620929598808,0.0033175640273839235]},{"bufferView":4,"byteOffset":0,"count":10,"componentType":5126,"type":"VEC2"},{"bufferView":5,"byteOffset":0,"count":18,"componentType":5125,"type":"SCALAR"},{"bufferView":6,"byteOffset":0,"count":11,"componentType":5126,"type":"VEC3","min":[0.0015363221755251288,-0.007887890562415123,0.0012650468852370977],"max":[0.0097404411062598228,0.0012598548782989383,0.0031445070635527372]},{"bufferView":7,"byteOffset":0,"count":11,"componentType":5126,"type":"VEC2"},{"bufferView":8,"byteOffset":0,"count":30,"componentType":5125,"type":"SCALAR"},{"bufferView":9,"byteOffset":0,"count":13,"componentType":5126,"type":"VEC3","min":[-0.016569536179304123,-0.0032990274485200644,0.0014882874675095081],"max":[-0.0068796719424426556,0.0051580620929598808,0.0033175640273839235]},{"bufferView":10,"byteOffset":0,"count":13,"componentType":5126,"type":"VEC2"},{"bufferView":11,"byteOffset":0,"count":18,"componentType":5125,"type":"SCALAR"},{"bufferView":12,"byteOffset":0,"count":9,"componentType":5126,"type":"VEC3","min":[-0.021257614716887474,0.0014882871182635427,0.0017363438382744789],"max":[-0.010917910374701023,0.0094471368938684464,0.003538988996297121]},{"bufferView":13,"byteOffset":0,"count":9,"componentType":5126,"type":"VEC2"},{"bufferView":14,"byteOffset":0,"count":12,"componentType":5125,"type":"SCALAR"},{"bufferView":15,"byteOffset":0,"count":10,"componentType":5126,"type":"VEC3","min":[-0.012132111005485058,0.024148829281330109,0.0020999922417104244],"max":[-0.0060557560063898563,0.0378875695168972,0.0048806970007717609]},{"bufferView":16,"byteOffset":0,"count":10,"componentType":5126,"type":"VEC2"},{"bufferView":17,"byteOffset":0,"count":12,"componentType":5125,"type":"SCALAR"},{"bufferView":18,"byteOffset":0,"count":8,"componentType":5126,"type":"VEC3","min":[0.0060351630672812462,0.024148829281330109,0.0020999922417104244],"max":[0.012111518532037735,0.0378875695168972,0.0048806970007717609]},{"bufferView":19,"byteOffset":0,"count":8,"componentType":5126,"type":"VEC2"},{"bufferView":20,"byteOffset":0,"count":12,"componentType":5125,"type":"SCALAR"},{"bufferView":21,"byteOffset":0,"count":8,"componentType":5126,"type":"VEC3","min":[0.014377277344465256,0.0081855282187461853,0.0020587965846061707],"max":[0.025726672261953354,0.014467860572040081,0.0037684151902794838]},{"bufferView":22,"byteOffset":0,"count":8,"componentType":5126,"type":"VEC2"},{"bufferView":23,"byteOffset":0,"count":12,"componentType":5125,"type":"SCALAR"},{"bufferView":24,"byteOffset":0,"count":10,"componentType":5126,"type":"VEC3","min":[-0.0257472675293684,0.0081855282187461853,0.0020587965846061707],"max":[-0.014397871680557728,0.014467860572040081,0.0037684151902794838]},{"bufferView":25,"byteOffset":0,"count":10,"componentType":5126,"type":"VEC2"},{"bufferView":26,"byteOffset":0,"count":12,"componentType":5125,"type":"SCALAR"},{"bufferView":27,"byteOffset":0,"count":7,"componentType":5126,"type":"VEC3","min":[0.010900907218456268,0.0014882871182635427,0.0017363438382744789],"max":[0.021240610629320145,0.0094471368938684464,0.003538988996297121]},{"bufferView":28,"byteOffset":0,"count":7,"componentType":5126,"type":"VEC2"},{"bufferView":29,"byteOffset":0,"count":12,"componentType":5125,"type":"SCALAR"},{"bufferView":30,"byteOffset":0,"count":86,"componentType":5126,"type":"VEC3","min":[-0.019446874037384987,-0.0051593733951449394,2.3283064365386963E-10],"max":[0.019431313499808311,0.027324674651026726,0.0095989741384983063]},{"bufferView":31,"byteOffset":0,"count":86,"componentType":5126,"type":"VEC2"},{"bufferView":32,"byteOffset":0,"count":246,"componentType":5125,"type":"SCALAR"}],"bufferViews":[{"buffer":0,"byteOffset":0,"byteLength":216,"byteStride":12,"target":34962},{"buffer":0,"byteOffset":216,"byteLength":144,"byteStride":8,"target":34962},{"buffer":0,"byteOffset":360,"byteLength":120,"target":34963},{"buffer":0,"byteOffset":480,"byteLength":120,"byteStride":12,"target":34962},{"buffer":0,"byteOffset":600,"byteLength":80,"byteStride":8,"target":34962},{"buffer":0,"byteOffset":680,"byteLength":72,"target":34963},{"buffer":0,"byteOffset":752,"byteLength":132,"byteStride":12,"target":34962},{"buffer":0,"byteOffset":884,"byteLength":88,"byteStride":8,"target":34962},{"buffer":0,"byteOffset":972,"byteLength":120,"target":34963},{"buffer":0,"byteOffset":1092,"byteLength":156,"byteStride":12,"target":34962},{"buffer":0,"byteOffset":1248,"byteLength":104,"byteStride":8,"target":34962},{"buffer":0,"byteOffset":1352,"byteLength":72,"target":34963},{"buffer":0,"byteOffset":1424,"byteLength":108,"byteStride":12,"target":34962},{"buffer":0,"byteOffset":1532,"byteLength":72,"byteStride":8,"target":34962},{"buffer":0,"byteOffset":1604,"byteLength":48,"target":34963},{"buffer":0,"byteOffset":1652,"byteLength":120,"byteStride":12,"target":34962},{"buffer":0,"byteOffset":1772,"byteLength":80,"byteStride":8,"target":34962},{"buffer":0,"byteOffset":1852,"byteLength":48,"target":34963},{"buffer":0,"byteOffset":1900,"byteLength":96,"byteStride":12,"target":34962},{"buffer":0,"byteOffset":1996,"byteLength":64,"byteStride":8,"target":34962},{"buffer":0,"byteOffset":2060,"byteLength":48,"target":34963},{"buffer":0,"byteOffset":2108,"byteLength":96,"byteStride":12,"target":34962},{"buffer":0,"byteOffset":2204,"byteLength":64,"byteStride":8,"target":34962},{"buffer":0,"byteOffset":2268,"byteLength":48,"target":34963},{"buffer":0,"byteOffset":2316,"byteLength":120,"byteStride":12,"target":34962},{"buffer":0,"byteOffset":2436,"byteLength":80,"byteStride":8,"target":34962},{"buffer":0,"byteOffset":2516,"byteLength":48,"target":34963},{"buffer":0,"byteOffset":2564,"byteLength":84,"byteStride":12,"target":34962},{"buffer":0,"byteOffset":2648,"byteLength":56,"byteStride":8,"target":34962},{"buffer":0,"byteOffset":2704,"byteLength":48,"target":34963},{"buffer":0,"byteOffset":2752,"byteLength":1032,"byteStride":12,"target":34962},{"buffer":0,"byteOffset":3784,"byteLength":688,"byteStride":8,"target":34962},{"buffer":0,"byteOffset":4472,"byteLength":984,"target":34963}],"buffers":[{"byteLength":5456,"uri":"scene.bin"}]}