{"asset":{"generator":"3D Builder","version":"2.0"},"scene":0,"scenes":[{"nodes":[0]}],"nodes":[{"mesh":0,"matrix":[1,0,0,0,0,0.99999862909317017,8.3446394683051039E-7,0,0,-7.1525403200212168E-7,0.99999850988388062,0,0,0.0022441400215029716,-0.010620537213981152,1]}],"meshes":[{"primitives":[{"attributes":{"POSITION":0,"TEXCOORD_0":6},"mode":4,"indices":12,"material":0},{"attributes":{"POSITION":1,"TEXCOORD_0":7},"mode":4,"indices":13,"material":1},{"attributes":{"POSITION":2,"TEXCOORD_0":8},"mode":4,"indices":14,"material":2},{"attributes":{"POSITION":3,"TEXCOORD_0":9},"mode":4,"indices":15,"material":3},{"attributes":{"POSITION":4,"TEXCOORD_0":10},"mode":4,"indices":16,"material":4},{"attributes":{"POSITION":5,"TEXCOORD_0":11},"mode":4,"indices":17,"material":5}]}],"materials":[{"pbrMetallicRoughness":{"baseColorFactor":[1,1,1,1],"metallicFactor":0,"roughnessFactor":1,"baseColorTexture":{"index":0,"texCoord":0}},"alphaMode":"OPAQUE"},{"pbrMetallicRoughness":{"baseColorFactor":[1,1,1,1],"metallicFactor":0,"roughnessFactor":1,"baseColorTexture":{"index":1,"texCoord":0}},"alphaMode":"OPAQUE"},{"pbrMetallicRoughness":{"baseColorFactor":[1,1,1,1],"metallicFactor":0,"roughnessFactor":1,"baseColorTexture":{"index":2,"texCoord":0}},"alphaMode":"OPAQUE"},{"pbrMetallicRoughness":{"baseColorFactor":[1,1,1,1],"metallicFactor":0,"roughnessFactor":1,"baseColorTexture":{"index":3,"texCoord":0}},"alphaMode":"OPAQUE"},{"pbrMetallicRoughness":{"baseColorFactor":[1,1,1,1],"metallicFactor":0,"roughnessFactor":1,"baseColorTexture":{"index":4,"texCoord":0}},"alphaMode":"OPAQUE"},{"pbrMetallicRoughness":{"baseColorFactor":[1,1,1,1],"metallicFactor":0,"roughnessFactor":1,"baseColorTexture":{"index":5,"texCoord":0}},"alphaMode":"OPAQUE"}],"textures":[{"source":0,"sampler":0},{"source":1,"sampler":0},{"source":2,"sampler":0},{"source":3,"sampler":0},{"source":4,"sampler":0},{"source":5,"sampler":0}],"images":[{"uri":"telesa_0.png"},{"uri":"telesa_3.png"},{"uri":"telesa_4.png"},{"uri":"telesa_5.png"},{"uri":"telesa_2.png"},{"uri":"telesa_1.png"}],"samplers":[{"magFilter":9729,"wrapS":10497,"wrapT":10497}],"accessors":[{"bufferView":0,"byteOffset":0,"count":135,"componentType":5126,"type":"VEC3","min":[-0.013588668778538704,0.00028569920687004924,-0.014187322929501534],"max":[0.013588668778538704,0.022278008982539177,0.011125809513032436]},{"bufferView":0,"byteOffset":1620,"count":50,"componentType":5126,"type":"VEC3","min":[-0.0062404242344200611,0.010427512228488922,0.0056267096661031246],"max":[0.0062404242344200611,0.020177938044071198,0.012314961291849613]},{"bufferView":0,"byteOffset":2220,"count":22,"componentType":5126,"type":"VEC3","min":[-0.0018575527938082814,0.0046053756959736347,0.0051591717638075352],"max":[0.0018575527938082814,0.0059924186207354069,0.012864668853580952]},{"bufferView":0,"byteOffset":2484,"count":14,"componentType":5126,"type":"VEC3","min":[-0.0029513782355934381,0.0090040965005755424,0.010038080625236034],"max":[0.0029513782355934381,0.011310416273772717,0.011202441528439522]},{"bufferView":0,"byteOffset":2652,"count":17,"componentType":5126,"type":"VEC3","min":[-0.0036122356541454792,0.003968495875597,0.0043423585593700409],"max":[0.0036122356541454792,0.011794007383286953,0.011848008260130882]},{"bufferView":0,"byteOffset":2856,"count":18,"componentType":5126,"type":"VEC3","min":[-0.0022280116099864244,0.013614628463983536,0.010745825245976448],"max":[0.0022280116099864244,0.015063012950122356,0.011266550980508327]},{"bufferView":1,"byteOffset":0,"count":135,"componentType":5126,"type":"VEC2"},{"bufferView":1,"byteOffset":1080,"count":50,"componentType":5126,"type":"VEC2"},{"bufferView":1,"byteOffset":1480,"count":22,"componentType":5126,"type":"VEC2"},{"bufferView":1,"byteOffset":1656,"count":14,"componentType":5126,"type":"VEC2"},{"bufferView":1,"byteOffset":1768,"count":17,"componentType":5126,"type":"VEC2"},{"bufferView":1,"byteOffset":1904,"count":18,"componentType":5126,"type":"VEC2"},{"bufferView":2,"byteOffset":0,"count":744,"componentType":5125,"type":"SCALAR"},{"bufferView":2,"byteOffset":2976,"count":210,"componentType":5125,"type":"SCALAR"},{"bufferView":2,"byteOffset":3816,"count":120,"componentType":5125,"type":"SCALAR"},{"bufferView":2,"byteOffset":4296,"count":54,"componentType":5125,"type":"SCALAR"},{"bufferView":2,"byteOffset":4512,"count":60,"componentType":5125,"type":"SCALAR"},{"bufferView":2,"byteOffset":4752,"count":48,"componentType":5125,"type":"SCALAR"}],"bufferViews":[{"buffer":0,"byteOffset":0,"byteLength":3072,"byteStride":12,"target":34962},{"buffer":0,"byteOffset":3072,"byteLength":2048,"byteStride":8,"target":34962},{"buffer":0,"byteOffset":5120,"byteLength":4944,"target":34963}],"buffers":[{"byteLength":10064,"uri":"scene.bin"}]}