{"asset":{"generator":"3D Builder","version":"2.0"},"scene":0,"scenes":[{"nodes":[0]}],"nodes":[{"mesh":0,"matrix":[1,0,0,0,0,0.99999850988388062,-1.3113003660691902E-6,0,0,8.5681489281341783E-7,0.99999874830245972,0,0,0.0021882052533328533,-0.021804602816700935,1]}],"meshes":[{"primitives":[{"attributes":{"POSITION":0,"TEXCOORD_0":6},"mode":4,"indices":12,"material":0},{"attributes":{"POSITION":1,"TEXCOORD_0":7},"mode":4,"indices":13,"material":0},{"attributes":{"POSITION":2,"TEXCOORD_0":8},"mode":4,"indices":14,"material":1},{"attributes":{"POSITION":3,"TEXCOORD_0":9},"mode":4,"indices":15,"material":0},{"attributes":{"POSITION":4,"TEXCOORD_0":10},"mode":4,"indices":16,"material":2},{"attributes":{"POSITION":5,"TEXCOORD_0":11},"mode":4,"indices":17,"material":3}]}],"materials":[{"pbrMetallicRoughness":{"baseColorFactor":[1,1,1,1],"metallicFactor":0,"roughnessFactor":1,"baseColorTexture":{"index":0,"texCoord":0}},"alphaMode":"OPAQUE"},{"pbrMetallicRoughness":{"baseColorFactor":[1,1,1,1],"metallicFactor":0,"roughnessFactor":1,"baseColorTexture":{"index":1,"texCoord":0}},"alphaMode":"OPAQUE"},{"pbrMetallicRoughness":{"baseColorFactor":[1,1,1,1],"metallicFactor":0,"roughnessFactor":1,"baseColorTexture":{"index":2,"texCoord":0}},"alphaMode":"OPAQUE"},{"pbrMetallicRoughness":{"baseColorFactor":[1,1,1,1],"metallicFactor":0,"roughnessFactor":1,"baseColorTexture":{"index":3,"texCoord":0}},"alphaMode":"OPAQUE"}],"textures":[{"source":0,"sampler":0},{"source":1,"sampler":0},{"source":2,"sampler":0},{"source":3,"sampler":0}],"images":[{"uri":"706120E1_c.png"},{"uri":"AF6C35E_c.png"},{"uri":"4AF31E27_c.png"},{"uri":"4D41A950_c.png"}],"samplers":[{"magFilter":9729,"wrapS":10497,"wrapT":10497}],"accessors":[{"bufferView":0,"byteOffset":0,"count":127,"componentType":5126,"type":"VEC3","min":[-0.014384019188582897,4.8260000767186284E-5,-0.014414499513804913],"max":[0.014427199959754944,0.039926260709762573,0.014325600117444992]},{"bufferView":0,"byteOffset":1524,"count":130,"componentType":5126,"type":"VEC3","min":[-0.02029460109770298,0.0055803796276450157,-0.020358100533485413],"max":[0.020340319722890854,0.034394137561321259,0.015575280413031578]},{"bufferView":0,"byteOffset":3084,"count":64,"componentType":5126,"type":"VEC3","min":[-0.01432051882147789,0.0086639402434229851,0.010101580061018467],"max":[0.014414499513804913,0.034378901124000549,0.023992840200662613]},{"bufferView":0,"byteOffset":3852,"count":10,"componentType":5126,"type":"VEC3","min":[-0.0064414399676024914,0.0030810199677944183,0.010370819829404354],"max":[0.0064871599897742271,0.011115039698779583,0.019938999786973]},{"bufferView":0,"byteOffset":3972,"count":8,"componentType":5126,"type":"VEC3","min":[-0.0085242399945855141,0.0098882196471095085,0.015232379548251629],"max":[0.0085826599970459938,0.015232379548251629,0.018945859745144844]},{"bufferView":0,"byteOffset":4068,"count":8,"componentType":5126,"type":"VEC3","min":[-0.011463019996881485,0.021483318880200386,0.013952219858765602],"max":[0.011574780568480492,0.026065481826663017,0.017399000003933907]},{"bufferView":1,"byteOffset":0,"count":127,"componentType":5126,"type":"VEC2"},{"bufferView":1,"byteOffset":1016,"count":130,"componentType":5126,"type":"VEC2"},{"bufferView":1,"byteOffset":2056,"count":64,"componentType":5126,"type":"VEC2"},{"bufferView":1,"byteOffset":2568,"count":10,"componentType":5126,"type":"VEC2"},{"bufferView":1,"byteOffset":2648,"count":8,"componentType":5126,"type":"VEC2"},{"bufferView":1,"byteOffset":2712,"count":8,"componentType":5126,"type":"VEC2"},{"bufferView":2,"byteOffset":0,"count":648,"componentType":5125,"type":"SCALAR"},{"bufferView":2,"byteOffset":2592,"count":588,"componentType":5125,"type":"SCALAR"},{"bufferView":2,"byteOffset":4944,"count":210,"componentType":5125,"type":"SCALAR"},{"bufferView":2,"byteOffset":5784,"count":30,"componentType":5125,"type":"SCALAR"},{"bufferView":2,"byteOffset":5904,"count":18,"componentType":5125,"type":"SCALAR"},{"bufferView":2,"byteOffset":5976,"count":12,"componentType":5125,"type":"SCALAR"}],"bufferViews":[{"buffer":0,"byteOffset":0,"byteLength":4164,"byteStride":12,"target":34962},{"buffer":0,"byteOffset":4164,"byteLength":2776,"byteStride":8,"target":34962},{"buffer":0,"byteOffset":6940,"byteLength":6024,"target":34963}],"buffers":[{"byteLength":12964,"uri":"scene.bin"}]}